<?xml version="1.0" encoding="UTF-8"?>
<svg xmlns="http://www.w3.org/2000/svg" width="188.22" height="200.98" version="1.1" xmlns:xlink="http://www.w3.org/1999/xlink" viewBox="0 0 188.22 200.98">
  <defs>
    <linearGradient id="Degradado_sin_nombre_22" data-name="Degradado sin nombre 22" x1="42.05" y1="17.58" x2="146.18" y2="17.58" gradientUnits="userSpaceOnUse">
      <stop offset="0" stop-color="#fab917"/>
      <stop offset="1" stop-color="#30f3d7"/>
    </linearGradient>
    <linearGradient id="Degradado_sin_nombre_19" data-name="Degradado sin nombre 19" x1="152.15" y1="201.52" x2="42.01" y2="10.75" gradientUnits="userSpaceOnUse">
      <stop offset="0" stop-color="#fff" stop-opacity="0"/>
      <stop offset=".2" stop-color="#fff" stop-opacity=".02"/>
      <stop offset=".4" stop-color="#fff" stop-opacity=".06"/>
      <stop offset=".59" stop-color="#fff" stop-opacity=".14"/>
      <stop offset=".79" stop-color="#fff" stop-opacity=".25"/>
      <stop offset=".98" stop-color="#fff" stop-opacity=".38"/>
      <stop offset="1" stop-color="#fff" stop-opacity=".4"/>
    </linearGradient>
    <linearGradient id="Degradado_sin_nombre_42" data-name="Degradado sin nombre 42" x1="0" y1="117.22" x2="188.22" y2="117.22" gradientUnits="userSpaceOnUse">
      <stop offset="0" stop-color="#fff" stop-opacity="0"/>
      <stop offset=".11" stop-color="#fff" stop-opacity=".03"/>
      <stop offset=".28" stop-color="#fff" stop-opacity=".1"/>
      <stop offset=".47" stop-color="#fff" stop-opacity=".23"/>
      <stop offset=".69" stop-color="#fff" stop-opacity=".4"/>
      <stop offset=".93" stop-color="#fff" stop-opacity=".63"/>
      <stop offset="1" stop-color="#fff" stop-opacity=".7"/>
    </linearGradient>
  </defs>
  <!-- Generator: Adobe Illustrator 28.7.1, SVG Export Plug-In . SVG Version: 1.2.0 Build 142)  -->
  <g>
    <g id="Layer_1">
      <g>
        <path d="M57.62,28.26c0-1.36.22-2.65.61-3.88,1.64-5.11,6.43-8.8,12.06-8.8h47.64c5.62,0,10.42,3.69,12.06,8.8.39,1.23.61,2.52.61,3.88v6.9h15.58v-6.9c0-1.31-.09-2.62-.26-3.88-1.9-13.76-13.71-24.38-27.98-24.38h-47.64c-14.27,0-26.08,10.62-27.98,24.38-.17,1.26-.26,2.57-.26,3.88v6.9h15.58v-6.9Z" fill="url(#Degradado_sin_nombre_22)"/>
        <path d="M123.54,24.39c-1.33-4.15-5.22-7.14-9.78-7.14h-38.66c-4.56,0-8.46,3-9.78,7.14-.32,1-.49,2.05-.49,3.15v5.6h59.21v-5.6c0-1.1-.18-2.15-.49-3.15Z" fill="none"/>
        <path d="M.98,34.43h186.26v121.22c0,24.48-19.87,44.35-44.35,44.35H45.33c-24.48,0-44.35-19.87-44.35-44.35V34.43h0Z" fill="url(#Degradado_sin_nombre_19)" stroke="url(#Degradado_sin_nombre_42)" stroke-linecap="round" stroke-linejoin="round" stroke-width="1.96"/>
        <g>
          <g>
            <path d="M76.52,78.71l-48.59,30.53c.23.21.51.17.78.17,1.54,0,3.08,0,4.62,0,1.17,0,2.34.05,3.52-.04.24-.05.45-.16.65-.3,2.6-1.8,5.24-3.53,7.84-5.32.53-.37,1.09-.71,1.61-1.09.08.12.08.18.08.23-.06,1.85-.18,3.7-.29,5.54-.02.32-.14.67.22.89.86.09,1.73.13,2.59-.03.22-.14.22-.38.26-.59.33-1.66.7-3.31,1.29-4.91.87-2.37,1.99-4.6,3.89-6.33,1.97-1.79,4.3-3.08,6.47-4.6.28-.2.35-.03.35.23,0,.57.06,1.14-.02,1.71-.26,1.97-.2,3.96-.39,5.94-.18,1.94-.18,3.89-.33,5.83-.05.69-.18,1.39-.12,2.09.02.23-.02.49.24.63.98.12,1.97.12,2.95,0,.32-.17.36-.49.42-.8.68-3.46,1.38-6.92,2.07-10.38.62-3.12,1.27-6.23,1.86-9.35.1-.51.33-.88.75-1.16.83-.55,1.65-1.11,2.48-1.65.46-.3.52-.27.57.3.17,1.77.4,3.54.62,5.31.4,3.25.77,6.49,1.18,9.74.31,2.42.58,4.85.87,7.28.03.27.04.56.34.71.44.08.88.19,1.29-.11-.01-9.23-.02-18.46-.04-27.7,0-.92-.01-1.84-.02-2.76Z" fill="silver"/>
            <path d="M150.84,83.67c-5.68,0-11.37.02-17.05,0-.45,0-.61.1-.59.58.04,1.12.01,2.24.02,3.36q0,.71.73.71c3.55,0,7.1,0,10.65,0,.1-.03.22-.05.31-.11,2.41-1.51,4.81-3.03,7.21-4.54-.42,0-.84-.02-1.27-.02Z" fill="silver"/>
            <path d="M121.68,84.15c-.08-.29-.19-.46-.55-.45-1.69.02-3.39.02-5.08,0-.34,0-.47.11-.56.45-.74,2.67-1.5,5.33-2.25,8-1.04,3.65-2.08,7.31-3.12,10.96-.57,2.01-1.16,4.02-1.74,6.03l.42.05h2.66c2.4-1.5,4.8-3,7.2-4.51-1.06-.15-2.13-.04-3.19-.05-.37,0-.53-.02-.4-.48,1.12-3.93,2.22-7.87,3.32-11.81.05-.17.06-.35.25-.54,1.03,3.67,2.04,7.29,3.06,10.92,1.55-.84,3.01-1.81,4.47-2.79-.72-2.52-1.43-5.05-2.15-7.57-.78-2.73-1.57-5.47-2.35-8.2Z" fill="silver"/>
            <path d="M98.22,86.44c-2.54-2.98-5.92-3.79-9.58-3.27-5.02.7-7.25,4.52-7.59,8.75-.03.36.09.48.46.47,1.38-.02,2.76-.03,4.14,0,.42,0,.57-.16.59-.52.03-.52.18-1.01.35-1.5.44-1.24,1.18-2.21,2.53-2.55,1.29-.33,2.56-.2,3.75.4,1.72.86,2.49,2.43,3.01,4.16.58,1.92.82,3.9.92,5.91.18,3.64.18,7.27-.58,10.86,1.73.05,3.47.06,5.2-.01.31-1.87.56-3.74.62-5.63.11-3.63-.01-7.24-.87-10.78-.55-2.29-1.39-4.46-2.94-6.28Z" fill="silver"/>
            <path d="M54.76,102.85c-1.19,1.95-1.69,4.13-2.03,6.35,1.68,0,3.35,0,5.03-.01.18-3.21.37-6.42.55-9.71-1.54.86-2.69,1.96-3.55,3.37Z" fill="silver"/>
            <path d="M70.11,96.66c0-.08-.02-.18-.19-.19-.75,3.8-1.51,7.6-2.26,11.41.05.03.11.06.16.1,1.04-.71,2.09-1.42,3.13-2.12.19-.13.15-.3.13-.49-.32-2.9-.64-5.8-.96-8.7Z" fill="silver"/>
          </g>
          <g>
            <path d="M105.92,140.94c-1.47,0-2.95,0-4.42,0-.28,0-.36.1-.41.37-.11.63-.26,1.26-.44,1.87-1.02,3.47-4.69,4.66-7.48,2.42-1.14-.91-1.73-2.17-2.15-3.52-.79-2.53-.94-5.16-1.05-7.78-.09-2.08.02-4.16.23-6.22.16-1.68.46-3.35,1.07-4.94,1.03-2.71,2.86-3.97,5.64-3.84,2.43.12,3.45,2.09,3.74,4.26.04.31.15.4.45.4.72-.02,1.44,0,2.15,0,.74,0,1.47-.01,2.21,0,.33,0,.42-.11.37-.42-.08-.47-.12-.95-.21-1.42-.52-2.69-1.81-4.88-4.24-6.28-1.94-1.12-4.07-1.32-6.25-1.11-1.84.18-3.55.77-5.03,1.93-2.45,1.91-3.63,4.57-4.34,7.48-.89,3.65-1.08,7.36-.89,11.11.15,2.89.5,5.75,1.46,8.49.8,2.28,2,4.3,4,5.75,2.21,1.6,4.75,2.01,7.4,1.78,2.25-.2,4.24-1.04,5.79-2.75,1.87-2.09,2.56-4.62,2.74-7.34.02-.3-.18-.23-.32-.23Z" fill="#fefefe"/>
            <path d="M53.6,116.03c.01-.49-.11-.65-.63-.65-6.18.03-12.37.03-18.55.02-.48,0-.61.12-.61.61.03,5.68.03,11.37.03,17.05,0,5.68.02,11.37.01,17.05,0,.44.09.6.57.59,1.32-.03,2.65-.04,3.98,0,.5.01.65-.12.65-.64-.03-4.91-.02-9.82-.04-14.73,0-.49.1-.65.63-.65,3.24.02,6.48,0,9.72,0,.41,0,.54-.1.53-.52-.03-1.18-.03-2.35,0-3.53.01-.46-.12-.59-.58-.58-3.24.02-6.48,0-9.72.03-.46,0-.58-.13-.58-.58.02-2.94.02-5.89-.01-8.83,0-.55.16-.66.67-.66,4.45.02,8.91,0,13.36,0,.45,0,.6-.11.58-.58-.04-1.14-.04-2.28,0-3.42Z" fill="#fefefe"/>
            <path d="M160.02,78.61c-11.33,7.05-22.63,14.16-33.94,21.25-1.46.93-2.92,1.87-4.41,2.75-1.04.67-2.09,1.33-3.14,1.99-2.24,1.38-4.63,2.72-6.68,4.18l-.55.57c-.05.31-.04.62-.04.93.02,14.78.03,29.57.05,44.35,0,.2,0,.4,0,.61,0,.2.03.41.19.56l.67-.37,6.91-4.34c13.73-8.61,27.44-17.23,41.19-25.8l-.28-46.69ZM130.22,138.99c-.99.6-1.96,1.23-2.98,1.87-.3-.69-.34-1.41-.48-2.1-.43-2.1-.84-4.21-1.23-6.33-.07-.38-.17-.42-.49-.22-1.4.89-2.8,1.76-4.21,2.63-.21.13-.3.28-.33.52-.27,2.34-.55,4.67-.82,7.01-.12,1.06-.25,2.12-.37,3.17-.02.15-.05.29-.19.38-1.09.68-2.17,1.36-3.36,2.1.1-.87.17-1.63.26-2.39.36-3.01.72-6.02,1.07-9.03.42-3.58.82-7.15,1.25-10.73.56-4.71,1.14-9.41,1.71-14.12.11-.88.22-1.75.3-2.63.03-.29.14-.47.38-.61.99-.6,1.98-1.2,2.94-1.85.4-.26.46-.05.53.25.24,1.19.47,2.38.71,3.57.35,1.77.69,3.53,1.03,5.3.48,2.43.96,4.86,1.43,7.3.63,3.21,1.27,6.41,1.9,9.62.38,1.93.76,3.86,1.15,5.78.05.23,0,.36-.22.49ZM143.02,118.03c-.13,3.47-.37,6.93-1.44,10.28-.94,2.92-2.5,5.33-5.25,6.87-1.54.86-3,1.86-4.49,2.79-.12.08-.25.14-.38.2-.07-.02-.14-.04-.21-.05,0-2,.03-4.01-.01-6.01-.1-5.33-.23-10.66-.36-15.99-.1-4.39-.22-8.79-.34-13.18-.01-.38.09-.61.41-.8,1.55-.95,3.08-1.94,4.64-2.88,2.19-1.34,4.06-.99,5.26.93.27.44.49.9.67,1.39.75,2.06,1.03,4.2,1.23,6.36.31,3.35.42,6.72.29,10.08ZM156.59,122.48c-3.47,2.15-6.92,4.32-10.38,6.49-.44.27-.49.14-.5-.29-.12-5.9-.25-11.8-.38-17.7-.13-5.68-.27-11.36-.42-17.04,0-.36.07-.6.41-.81,3.43-2.13,6.85-4.28,10.28-6.43.07-.05.16-.08.45-.22,0,1.63,0,3.12.01,4.6,0,.32-.22.4-.41.52-2.32,1.46-4.64,2.91-6.96,4.36-.22.14-.35.27-.35.55.09,3.25.16,6.51.24,9.76,0,.03.03.06.08.14,1.79-1.12,3.57-2.23,5.37-3.35.18.28.12.56.13.83.02,1.14.02,2.28.07,3.42.02.4-.12.63-.46.84-1.57.96-3.11,1.95-4.68,2.92-.29.18-.41.36-.4.7.09,3.34.17,6.69.24,10.03.01.61.27.39.56.22,2.27-1.43,4.54-2.86,6.82-4.28.14-.09.33-.24.43-.2.2.08.09.32.1.49.05,1.25.08,2.5.13,3.75.01.32-.07.53-.36.71Z" fill="#fefefe"/>
            <path d="M139.61,112.39c-.06-1.95-.21-3.89-.58-5.8-.16-.81-.34-1.62-.82-2.32-.39-.56-.88-.73-1.53-.56-.86.22-1.53.79-2.28,1.21-.33.18-.44.41-.43.79.06,2.85.12,5.69.21,8.54.11,3.43.16,6.87.23,10.31.05,2.08.1,4.15.16,6.23,0,.16-.14.62.32.35.94-.54,1.83-1.14,2.47-2.06,1.16-1.67,1.63-3.56,1.92-5.51.4-2.71.49-5.45.33-8.19,0-.99.02-1.98,0-2.97Z" fill="#fefefe"/>
            <path d="M122.92,118.86c-.08-.43-.19-.86-.29-1.29-.03,0-.06.01-.09.02-.46,4-.93,8-1.41,12.16,1.07-.67,1.96-1.27,2.9-1.8.47-.26.56-.55.46-1.05-.54-2.68-1.05-5.36-1.57-8.04Z" fill="#fefefe"/>
            <path d="M79,142.63c-1.24-4.3-2.48-8.61-3.72-12.91-1.33-4.64-2.64-9.28-3.95-13.93-.09-.32-.26-.43-.59-.42-.83.02-1.66,0-2.48,0-.77,0-1.55.04-2.32-.01-.54-.04-.73.18-.86.66-1.19,4.24-2.4,8.48-3.61,12.72-1.54,5.44-3.08,10.88-4.62,16.32-.47,1.64-.94,3.28-1.4,4.93-.19.69-.19.69.51.69,1.32,0,2.65-.03,3.97,0,.56.02.79-.14.94-.7.74-2.8,1.53-5.59,2.28-8.4.13-.5.35-.71.9-.7,1.43.04,2.87,0,4.31,0,1.45,0,2.91.01,4.36,0,.34,0,.5.12.6.48.82,2.95,1.67,5.9,2.49,8.85.09.31.2.42.52.42,1.51-.01,3.02-.02,4.53,0,.37,0,.43-.1.33-.45-.73-2.52-1.44-5.05-2.17-7.57ZM71.4,136.3c-2.08-.02-4.16-.02-6.24,0-.45,0-.52-.11-.4-.52.89-3.14,1.76-6.29,2.63-9.44.26-.95.53-1.91.79-2.86.03,0,.07,0,.1,0,.47,1.66.95,3.31,1.42,4.97.69,2.44,1.36,4.88,2.08,7.31.13.43.07.54-.38.53Z" fill="#fefefe"/>
          </g>
        </g>
      </g>
    </g>
  </g>
</svg>