<?xml version="1.0" encoding="UTF-8"?>
<svg id="Layer_5" xmlns="http://www.w3.org/2000/svg" width="200" height="200" xmlns:xlink="http://www.w3.org/1999/xlink" viewBox="0 0 200 200">
  <defs>
    <linearGradient id="Degradado_sin_nombre_10" data-name="Degradado sin nombre 10" x1="49.03" y1="160.14" x2="159.53" y2="160.14" gradientUnits="userSpaceOnUse">
      <stop offset="0" stop-color="#30f3d7"/>
      <stop offset="1" stop-color="#0367ed"/>
    </linearGradient>
    <linearGradient id="Degradado_sin_nombre_10-2" data-name="Degradado sin nombre 10" x1="139.93" y1="83.97" x2="62.13" y2="74.9" xlink:href="#Degradado_sin_nombre_10"/>
    <linearGradient id="Degradado_sin_nombre_19" data-name="Degradado sin nombre 19" x1="137.35" y1="106.13" x2="59.55" y2="97.05" gradientUnits="userSpaceOnUse">
      <stop offset="0" stop-color="#fff" stop-opacity="0"/>
      <stop offset=".2" stop-color="#fff" stop-opacity=".02"/>
      <stop offset=".4" stop-color="#fff" stop-opacity=".06"/>
      <stop offset=".59" stop-color="#fff" stop-opacity=".14"/>
      <stop offset=".79" stop-color="#fff" stop-opacity=".25"/>
      <stop offset=".98" stop-color="#fff" stop-opacity=".38"/>
      <stop offset="1" stop-color="#fff" stop-opacity=".4"/>
    </linearGradient>
    <linearGradient id="Degradado_sin_nombre_42" data-name="Degradado sin nombre 42" x1="39.97" y1="100.07" x2="152.32" y2="100.07" gradientUnits="userSpaceOnUse">
      <stop offset="0" stop-color="#fff" stop-opacity="0"/>
      <stop offset=".11" stop-color="#fff" stop-opacity=".03"/>
      <stop offset=".28" stop-color="#fff" stop-opacity=".1"/>
      <stop offset=".47" stop-color="#fff" stop-opacity=".23"/>
      <stop offset=".69" stop-color="#fff" stop-opacity=".4"/>
      <stop offset=".93" stop-color="#fff" stop-opacity=".63"/>
      <stop offset="1" stop-color="#fff" stop-opacity=".7"/>
    </linearGradient>
  </defs>
  <path d="M109.2,151.06c-3.62-2.39-8.54-3.58-14.76-3.58-1.74,0-3.41.1-5.02.3,4.45.4,8.1,1.54,10.94,3.41,3.61,2.39,5.42,5.23,5.42,8.52,0,4.04-2.23,7.25-6.68,9.63-3.18,1.71-6.99,2.8-11.42,3.29,1.05.1,2.12.16,3.23.16,6.89,0,12.57-1.19,17.03-3.58,4.45-2.39,6.68-5.6,6.68-9.63,0-3.29-1.81-6.13-5.42-8.52Z" fill="url(#Degradado_sin_nombre_10)"/>
  <g>
    <path d="M151.54,45.95c-5.05-5.73-13.08-10.32-24.09-13.77-11.02-3.45-24.85-5.18-41.5-5.18-2.69,0-5.29.05-7.81.14,16.19.07,29.69,1.79,40.48,5.17,11.01,3.45,19.05,8.04,24.09,13.77,5.05,5.73,7.57,12.1,7.57,19.11,0,5.2-1.68,9.71-5.05,13.54-3.37,3.82-7.36,6.95-11.98,9.4-4.63,2.44-10.56,5.1-17.78,7.96-5.21,2.13-9.33,3.93-12.36,5.41-3.03,1.49-5.47,3.08-7.32,4.78-.84,1.59-1.18,3.18-1.01,4.78,0,8.31.66,14.96,1.98,19.93h8.87c-1.35-4.99-2.02-11.68-2.02-20.06-.17-1.59.17-3.18,1.01-4.78,1.85-1.7,4.29-3.29,7.32-4.78,3.03-1.49,7.15-3.29,12.36-5.41,7.23-2.87,13.16-5.52,17.78-7.96,4.62-2.44,8.62-5.57,11.98-9.4,3.36-3.82,5.05-8.33,5.05-13.54,0-7.01-2.52-13.38-7.57-19.11Z" fill="url(#Degradado_sin_nombre_10-2)"/>
    <path d="M65.11,109.78c0-3.29,1.68-6.37,5.05-9.24,3.36-2.87,7.57-5.57,12.61-8.12,5.05-2.55,12.11-5.73,21.19-9.55l9.08-3.98c.67-1.06,1.47-2.76,2.4-5.1.92-2.33,1.39-4.62,1.39-6.85,0-4.35-1.94-8.49-5.8-12.42-3.87-3.93-9.67-7.11-17.41-9.55-7.74-2.44-17.24-3.66-28.51-3.66-6.9,0-13.2.9-18.92,2.71l-5.3-12.58c3.36-1.17,8.36-2.17,15.01-3.03,6.64-.85,14.08-1.27,22.33-1.27,16.65,0,30.48,1.73,41.5,5.18,11.01,3.45,19.05,8.04,24.09,13.77,5.05,5.73,7.57,12.1,7.57,19.11,0,5.2-1.68,9.71-5.05,13.54-3.37,3.82-7.36,6.95-11.98,9.4-4.63,2.44-10.56,5.1-17.78,7.96-5.21,2.13-9.33,3.93-12.36,5.41-3.03,1.49-5.47,3.08-7.32,4.78-.84,1.59-1.18,3.18-1.01,4.78,0,8.39.67,15.08,2.02,20.06h-21.95c-6.73-7.75-10.34-14.86-10.85-21.34ZM69.15,169.66c-3.87-2.23-5.8-5.1-5.8-8.6,0-3.82,2.27-7.01,6.81-9.55,4.54-2.55,9.92-3.82,16.15-3.82s11.14,1.19,14.76,3.58c3.61,2.39,5.42,5.23,5.42,8.52,0,4.04-2.23,7.25-6.68,9.63-4.46,2.39-10.13,3.58-17.03,3.58-5.21,0-9.76-1.11-13.62-3.34Z" fill="url(#Degradado_sin_nombre_19)" stroke="url(#Degradado_sin_nombre_42)" stroke-linecap="round" stroke-linejoin="round" stroke-width="1.86"/>
  </g>
</svg>