<?xml version="1.0" encoding="UTF-8"?>
<svg xmlns="http://www.w3.org/2000/svg" width="200.92" height="196.43" version="1.1" xmlns:xlink="http://www.w3.org/1999/xlink" viewBox="0 0 200.92 196.43">
  <defs>
    <linearGradient id="Degradado_sin_nombre_10" data-name="Degradado sin nombre 10" x1="97.18" y1="179.48" x2="118.46" y2="179.48" gradientUnits="userSpaceOnUse">
      <stop offset="0" stop-color="#30f3d7"/>
      <stop offset="1" stop-color="#0367ed"/>
    </linearGradient>
    <linearGradient id="Degradado_sin_nombre_10-2" data-name="Degradado sin nombre 10" x1="62.43" y1="21.32" x2="84.15" y2="21.32" xlink:href="#Degradado_sin_nombre_10"/>
    <linearGradient id="Degradado_sin_nombre_10-3" data-name="Degradado sin nombre 10" x1="29.39" y1="158.59" x2="59.34" y2="158.59" xlink:href="#Degradado_sin_nombre_10"/>
    <linearGradient id="Degradado_sin_nombre_10-4" data-name="Degradado sin nombre 10" x1="63.66" y1="98.21" x2="115.16" y2="98.21" xlink:href="#Degradado_sin_nombre_10"/>
    <linearGradient id="Degradado_sin_nombre_10-5" data-name="Degradado sin nombre 10" x1="138.14" y1="143.4" x2="200.92" y2="143.4" xlink:href="#Degradado_sin_nombre_10"/>
    <linearGradient id="Degradado_sin_nombre_10-6" data-name="Degradado sin nombre 10" x1="164.63" y1="62.9" x2="193.11" y2="62.9" xlink:href="#Degradado_sin_nombre_10"/>
    <linearGradient id="Degradado_sin_nombre_10-7" data-name="Degradado sin nombre 10" x1="131.71" y1="26.79" x2="142.68" y2="26.79" xlink:href="#Degradado_sin_nombre_10"/>
    <linearGradient id="linear-gradient" x1="47.28" y1="230.17" x2="164.67" y2="-73.01" gradientUnits="userSpaceOnUse">
      <stop offset="0" stop-color="#fff" stop-opacity="0"/>
      <stop offset=".12" stop-color="#fff" stop-opacity=".02"/>
      <stop offset=".24" stop-color="#fff" stop-opacity=".06"/>
      <stop offset=".36" stop-color="#fff" stop-opacity=".14"/>
      <stop offset=".48" stop-color="#fff" stop-opacity=".25"/>
      <stop offset=".6" stop-color="#fff" stop-opacity=".38"/>
      <stop offset=".61" stop-color="#fff" stop-opacity=".4"/>
    </linearGradient>
    <linearGradient id="Degradado_sin_nombre_42" data-name="Degradado sin nombre 42" x1="0" y1="98.22" x2="196.74" y2="98.22" gradientUnits="userSpaceOnUse">
      <stop offset="0" stop-color="#fff" stop-opacity="0"/>
      <stop offset=".11" stop-color="#fff" stop-opacity=".03"/>
      <stop offset=".28" stop-color="#fff" stop-opacity=".1"/>
      <stop offset=".47" stop-color="#fff" stop-opacity=".23"/>
      <stop offset=".69" stop-color="#fff" stop-opacity=".4"/>
      <stop offset=".93" stop-color="#fff" stop-opacity=".63"/>
      <stop offset="1" stop-color="#fff" stop-opacity=".7"/>
    </linearGradient>
  </defs>
  <!-- Generator: Adobe Illustrator 28.7.1, SVG Export Plug-In . SVG Version: 1.2.0 Build 142)  -->
  <g>
    <g id="Layer_1">
      <g>
        <g>
          <path d="M105.49,166.7l-7.57,26.38c-.12.59-.39,1.11-.74,1.51l6.71-.58c.23.01.46,0,.69-.06h0c.94-.26,1.74-1.12,1.98-2.27l7.29-25.42c1.55-.16,3.08-.39,4.6-.66l-.97-1.25c-3.89,1.12-7.9,1.91-12,2.34Z" fill="url(#Degradado_sin_nombre_10)"/>
          <path d="M84.15,30.86l-11.89-15.19c-.33-.49-.76-.87-1.24-1.1h0l-8.58-3.99,16.82,21.48c1.61-.47,3.25-.86,4.9-1.21Z" fill="url(#Degradado_sin_nombre_10-2)"/>
          <path d="M30.87,164.98c-.47.31-.98.48-1.48.53l9.57-.68h0c.85.47,2.01.42,2.98-.22l17.4-9.64c-1.52-1.05-3.01-2.14-4.43-3.3l-24.04,13.31Z" fill="url(#Degradado_sin_nombre_10-3)"/>
          <path d="M74.22,93.61c3.68-18.07,21.34-29.75,39.44-26.08.5.1,1,.22,1.5.34-3.01-1.66-6.32-2.9-9.87-3.62-18.78-3.81-37.11,8.3-40.92,27.06-3.82,18.75,8.31,37.05,27.1,40.86,2.77.56,5.53.77,8.23.67-17.73-3.96-29.11-21.37-25.47-39.23Z" fill="url(#Degradado_sin_nombre_10-4)"/>
          <path d="M198.57,100.69l-3.36-.96c.48.57.71,1.29.56,2.01l-6.35,31.18c-.28,1.38-1.81,2.23-3.41,1.91l-27.28-3.34c-1.99,3.6-4.28,6.98-6.84,10.11l13.33,24c.9,1.36.68,3.09-.49,3.87l-26.57,17.57s-.03.01-.04.02l5.47-.9c.61.13,1.24.06,1.76-.29l25.61-16.93c1.13-.75,1.34-2.42.48-3.73l-12.85-23.13c2.46-3.02,4.68-6.28,6.59-9.75l26.29,3.22c1.54.31,3.01-.51,3.28-1.84l6.12-30.05c.27-1.33-.76-2.66-2.3-2.97Z" fill="url(#Degradado_sin_nombre_10-5)"/>
          <path d="M186.29,62.23l-21.66,16.9c1.13,3.88,1.92,7.89,2.34,11.98l6.07,1.74c-.42-3.74-1.15-7.41-2.19-10.98l20.88-16.29c1.31-.87,1.77-2.49,1.02-3.62l-16.96-25.57c-.29-.43-.71-.73-1.2-.88h0s-4.16-2.54-4.16-2.54l16.92,25.51c.78,1.17.3,2.85-1.06,3.75Z" fill="url(#Degradado_sin_nombre_10-6)"/>
          <path d="M135.05,10.7l-3.34,27.23c3.6,1.98,6.99,4.28,10.13,6.83l.85-.47c-1.16-.74-2.34-1.46-3.56-2.13l3.22-26.25c.23-1.15-.17-2.26-.94-2.86h0s0,0,0,0c-.05-.03-.1-.06-.15-.09-.76-.47-4.3-2.7-6.39-4.14.23.56.31,1.21.18,1.88Z" fill="url(#Degradado_sin_nombre_10-7)"/>
        </g>
        <path d="M164.75,169.48c1.17-.78,1.39-2.51.49-3.87l-13.33-24c2.56-3.14,4.85-6.52,6.84-10.11l27.28,3.34c1.6.32,3.12-.53,3.41-1.91l6.35-31.18c.15-.72-.08-1.44-.56-2.01-.43-.52-1.07-.91-1.83-1.07l-20.35-5.82-6.07-1.74c-.42-4.09-1.21-8.09-2.34-11.98l21.66-16.9c1.36-.9,1.84-2.58,1.06-3.75l-16.92-25.51-.68-1.02c-.78-1.17-2.51-1.39-3.88-.49l-23.19,12.84-.85.47c-3.14-2.55-6.53-4.84-10.13-6.83l3.34-27.23c.14-.67.06-1.32-.18-1.88-.32-.77-.93-1.36-1.73-1.52L101.91.96c-1.38-.28-2.76.79-3.09,2.39l-7.57,26.38c-2.4.25-4.76.64-7.1,1.13-1.65.35-3.29.74-4.9,1.21l-16.82-21.48-.11-.14c-.9-1.36-2.58-1.83-3.76-1.06l-26.57,17.57c-1.17.78-1.39,2.51-.49,3.87l13.33,24c-2.56,3.14-4.85,6.52-6.84,10.11l-27.28-3.34c-1.6-.32-3.13.53-3.41,1.91L.96,94.69c-.28,1.38.79,2.76,2.39,3.08l26.42,7.56c.42,4.09,1.22,8.09,2.34,11.98l-21.66,16.9c-1.36.9-1.84,2.58-1.06,3.75l17.59,26.53c.51.77,1.43,1.12,2.39,1.02.5-.05,1.01-.22,1.48-.53l24.04-13.31c1.43,1.16,2.91,2.25,4.43,3.3,1.83,1.26,3.73,2.44,5.7,3.53l-3.34,27.23c-.32,1.6.53,3.12,1.91,3.4l31.23,6.34c.87.18,1.74-.19,2.35-.88.36-.4.62-.92.74-1.51l7.57-26.38c4.09-.42,8.1-1.21,12-2.34l.97,1.25,15.95,20.38c.89,1.34,2.55,1.82,3.72,1.08.01,0,.03-.01.04-.02l26.57-17.57ZM91.46,132.17c-18.78-3.81-30.92-22.1-27.1-40.86,3.82-18.75,22.14-30.87,40.92-27.06,3.55.72,6.86,1.96,9.87,3.62,12.93,7.12,20.32,22.03,17.23,37.24-3.25,15.99-17.05,27.14-32.69,27.72-2.7.1-5.46-.11-8.23-.67Z" fill="url(#linear-gradient)" stroke="url(#Degradado_sin_nombre_42)" stroke-linecap="round" stroke-linejoin="round" stroke-width="1.84"/>
      </g>
    </g>
  </g>
</svg>