<?xml version="1.0" encoding="UTF-8"?>
<svg id="Layer_1" xmlns="http://www.w3.org/2000/svg" version="1.1" xmlns:xlink="http://www.w3.org/1999/xlink" viewBox="0 0 200 200">
  <!-- Generator: Adobe Illustrator 29.3.1, SVG Export Plug-In . SVG Version: 2.1.0 Build 151)  -->
  <defs>
    <linearGradient id="linear-gradient" x1="-652.72" y1="275.74" x2="-626.55" y2="275.74" gradientTransform="translate(671.48 -210)" gradientUnits="userSpaceOnUse">
      <stop offset="0" stop-color="#fff" stop-opacity="0"/>
      <stop offset=".2" stop-color="#fff" stop-opacity=".02"/>
      <stop offset=".4" stop-color="#fff" stop-opacity=".06"/>
      <stop offset=".59" stop-color="#fff" stop-opacity=".14"/>
      <stop offset=".79" stop-color="#fff" stop-opacity=".25"/>
      <stop offset=".98" stop-color="#fff" stop-opacity=".38"/>
      <stop offset="1" stop-color="#fff" stop-opacity=".4"/>
    </linearGradient>
    <linearGradient id="Degradado_sin_nombre_42" data-name="Degradado sin nombre 42" x1="-654.42" y1="275.74" x2="-623.06" y2="275.74" gradientTransform="translate(671.48 -210)" gradientUnits="userSpaceOnUse">
      <stop offset="0" stop-color="#fff" stop-opacity="0"/>
      <stop offset=".11" stop-color="#fff" stop-opacity=".03"/>
      <stop offset=".28" stop-color="#fff" stop-opacity=".1"/>
      <stop offset=".47" stop-color="#fff" stop-opacity=".23"/>
      <stop offset=".69" stop-color="#fff" stop-opacity=".4"/>
      <stop offset=".93" stop-color="#fff" stop-opacity=".63"/>
      <stop offset="1" stop-color="#fff" stop-opacity=".7"/>
    </linearGradient>
    <linearGradient id="linear-gradient1" y1="309.12" y2="309.12" gradientTransform="translate(704.86 -243.38)" xlink:href="#linear-gradient"/>
    <linearGradient id="Degradado_sin_nombre_421" data-name="Degradado sin nombre 42" y1="309.12" y2="309.12" gradientTransform="translate(704.86 -243.38)" xlink:href="#Degradado_sin_nombre_42"/>
    <linearGradient id="linear-gradient2" y1="342.5" y2="342.5" gradientTransform="translate(738.24 -276.76)" xlink:href="#linear-gradient"/>
    <linearGradient id="Degradado_sin_nombre_422" data-name="Degradado sin nombre 42" y1="342.5" y2="342.5" gradientTransform="translate(738.24 -276.76)" xlink:href="#Degradado_sin_nombre_42"/>
    <linearGradient id="linear-gradient3" y1="375.88" y2="375.88" gradientTransform="translate(771.62 -310.14)" xlink:href="#linear-gradient"/>
    <linearGradient id="Degradado_sin_nombre_423" data-name="Degradado sin nombre 42" y1="375.88" y2="375.88" gradientTransform="translate(771.62 -310.14)" xlink:href="#Degradado_sin_nombre_42"/>
    <linearGradient id="linear-gradient4" y1="409.26" y2="409.26" gradientTransform="translate(805 -343.52)" xlink:href="#linear-gradient"/>
    <linearGradient id="Degradado_sin_nombre_424" data-name="Degradado sin nombre 42" y1="409.26" y2="409.26" gradientTransform="translate(805 -343.52)" xlink:href="#Degradado_sin_nombre_42"/>
    <linearGradient id="linear-gradient5" x1="-689.48" x2="-663.31" gradientTransform="translate(708.24 -173.24)" xlink:href="#linear-gradient"/>
    <linearGradient id="Degradado_sin_nombre_425" data-name="Degradado sin nombre 42" x1="-691.18" x2="-659.82" gradientTransform="translate(708.24 -173.24)" xlink:href="#Degradado_sin_nombre_42"/>
    <linearGradient id="linear-gradient6" x1="-689.48" y1="309.12" x2="-663.31" y2="309.12" gradientTransform="translate(741.62 -206.62)" xlink:href="#linear-gradient"/>
    <linearGradient id="Degradado_sin_nombre_426" data-name="Degradado sin nombre 42" x1="-691.18" y1="309.12" x2="-659.82" y2="309.12" gradientTransform="translate(741.62 -206.62)" xlink:href="#Degradado_sin_nombre_42"/>
    <linearGradient id="linear-gradient7" x1="-689.48" y1="342.5" x2="-663.31" y2="342.5" gradientTransform="translate(775 -240)" xlink:href="#linear-gradient"/>
    <linearGradient id="Degradado_sin_nombre_427" data-name="Degradado sin nombre 42" x1="-691.18" y1="342.5" x2="-659.82" y2="342.5" gradientTransform="translate(775 -240)" xlink:href="#Degradado_sin_nombre_42"/>
    <linearGradient id="linear-gradient8" x1="-689.48" y1="375.88" x2="-663.31" y2="375.88" gradientTransform="translate(808.38 -273.38)" xlink:href="#linear-gradient"/>
    <linearGradient id="Degradado_sin_nombre_428" data-name="Degradado sin nombre 42" x1="-691.18" y1="375.88" x2="-659.82" y2="375.88" gradientTransform="translate(808.38 -273.38)" xlink:href="#Degradado_sin_nombre_42"/>
    <linearGradient id="linear-gradient9" x1="-689.48" y1="409.26" x2="-663.31" y2="409.26" gradientTransform="translate(841.76 -306.76)" xlink:href="#linear-gradient"/>
    <linearGradient id="Degradado_sin_nombre_429" data-name="Degradado sin nombre 42" x1="-691.18" y1="409.26" x2="-659.82" y2="409.26" gradientTransform="translate(841.76 -306.76)" xlink:href="#Degradado_sin_nombre_42"/>
    <linearGradient id="linear-gradient10" x1="-726.24" x2="-700.07" gradientTransform="translate(745 -136.48)" xlink:href="#linear-gradient"/>
    <linearGradient id="Degradado_sin_nombre_4210" data-name="Degradado sin nombre 42" x1="-727.94" x2="-696.58" gradientTransform="translate(745 -136.48)" xlink:href="#Degradado_sin_nombre_42"/>
    <linearGradient id="linear-gradient11" x1="-726.24" y1="309.12" x2="-700.07" y2="309.12" gradientTransform="translate(778.38 -169.86)" xlink:href="#linear-gradient"/>
    <linearGradient id="Degradado_sin_nombre_4211" data-name="Degradado sin nombre 42" x1="-727.94" y1="309.12" x2="-696.58" y2="309.12" gradientTransform="translate(778.38 -169.86)" xlink:href="#Degradado_sin_nombre_42"/>
    <linearGradient id="linear-gradient12" x1="-726.24" y1="342.5" x2="-700.07" y2="342.5" gradientTransform="translate(811.76 -203.24)" xlink:href="#linear-gradient"/>
    <linearGradient id="Degradado_sin_nombre_4212" data-name="Degradado sin nombre 42" x1="-727.94" y1="342.5" x2="-696.58" y2="342.5" gradientTransform="translate(811.76 -203.24)" xlink:href="#Degradado_sin_nombre_42"/>
    <linearGradient id="linear-gradient13" x1="-726.24" y1="375.88" x2="-700.07" y2="375.88" gradientTransform="translate(845.14 -236.62)" xlink:href="#linear-gradient"/>
    <linearGradient id="Degradado_sin_nombre_4213" data-name="Degradado sin nombre 42" x1="-727.94" y1="375.88" x2="-696.58" y2="375.88" gradientTransform="translate(845.14 -236.62)" xlink:href="#Degradado_sin_nombre_42"/>
    <linearGradient id="linear-gradient14" x1="-726.24" y1="409.26" x2="-700.07" y2="409.26" gradientTransform="translate(878.52 -270)" xlink:href="#linear-gradient"/>
    <linearGradient id="Degradado_sin_nombre_4214" data-name="Degradado sin nombre 42" x1="-727.94" y1="409.26" x2="-696.58" y2="409.26" gradientTransform="translate(878.52 -270)" xlink:href="#Degradado_sin_nombre_42"/>
    <linearGradient id="linear-gradient15" x1="-763" x2="-736.83" gradientTransform="translate(781.76 -99.72)" xlink:href="#linear-gradient"/>
    <linearGradient id="Degradado_sin_nombre_4215" data-name="Degradado sin nombre 42" x1="-764.7" x2="-733.34" gradientTransform="translate(781.76 -99.72)" xlink:href="#Degradado_sin_nombre_42"/>
    <linearGradient id="linear-gradient16" x1="-763" y1="309.12" x2="-736.83" y2="309.12" gradientTransform="translate(815.14 -133.1)" xlink:href="#linear-gradient"/>
    <linearGradient id="Degradado_sin_nombre_4216" data-name="Degradado sin nombre 42" x1="-764.7" y1="309.12" x2="-733.34" y2="309.12" gradientTransform="translate(815.14 -133.1)" xlink:href="#Degradado_sin_nombre_42"/>
    <linearGradient id="linear-gradient17" x1="-763" y1="342.5" x2="-736.83" y2="342.5" gradientTransform="translate(848.52 -166.48)" xlink:href="#linear-gradient"/>
    <linearGradient id="Degradado_sin_nombre_4217" data-name="Degradado sin nombre 42" x1="-764.7" y1="342.5" x2="-733.34" y2="342.5" gradientTransform="translate(848.52 -166.48)" xlink:href="#Degradado_sin_nombre_42"/>
    <linearGradient id="linear-gradient18" x1="-763" y1="375.88" x2="-736.83" y2="375.88" gradientTransform="translate(881.9 -199.86)" xlink:href="#linear-gradient"/>
    <linearGradient id="Degradado_sin_nombre_4218" data-name="Degradado sin nombre 42" x1="-764.7" y1="375.88" x2="-733.34" y2="375.88" gradientTransform="translate(881.9 -199.86)" xlink:href="#Degradado_sin_nombre_42"/>
    <linearGradient id="linear-gradient19" x1="-763" y1="409.26" x2="-736.83" y2="409.26" gradientTransform="translate(915.28 -233.24)" xlink:href="#linear-gradient"/>
    <linearGradient id="Degradado_sin_nombre_4219" data-name="Degradado sin nombre 42" x1="-764.7" y1="409.26" x2="-733.34" y2="409.26" gradientTransform="translate(915.28 -233.24)" xlink:href="#Degradado_sin_nombre_42"/>
    <linearGradient id="linear-gradient20" x1="-615.96" x2="-589.79" gradientTransform="translate(634.72 -246.76)" xlink:href="#linear-gradient"/>
    <linearGradient id="Degradado_sin_nombre_4220" data-name="Degradado sin nombre 42" x1="-617.66" x2="-586.3" gradientTransform="translate(634.72 -246.76)" xlink:href="#Degradado_sin_nombre_42"/>
    <linearGradient id="linear-gradient21" x1="-615.96" y1="309.12" x2="-589.79" y2="309.12" gradientTransform="translate(668.1 -280.14)" xlink:href="#linear-gradient"/>
    <linearGradient id="Degradado_sin_nombre_4221" data-name="Degradado sin nombre 42" x1="-617.66" y1="309.12" x2="-586.3" y2="309.12" gradientTransform="translate(668.1 -280.14)" xlink:href="#Degradado_sin_nombre_42"/>
    <linearGradient id="linear-gradient22" x1="-615.96" y1="342.5" x2="-589.79" y2="342.5" gradientTransform="translate(701.48 -313.52)" xlink:href="#linear-gradient"/>
    <linearGradient id="Degradado_sin_nombre_4222" data-name="Degradado sin nombre 42" x1="-617.66" y1="342.5" x2="-586.3" y2="342.5" gradientTransform="translate(701.48 -313.52)" xlink:href="#Degradado_sin_nombre_42"/>
    <linearGradient id="linear-gradient23" x1="-615.96" y1="375.88" x2="-589.79" y2="375.88" gradientTransform="translate(734.86 -346.9)" xlink:href="#linear-gradient"/>
    <linearGradient id="Degradado_sin_nombre_4223" data-name="Degradado sin nombre 42" x1="-617.66" y1="375.88" x2="-586.3" y2="375.88" gradientTransform="translate(734.86 -346.9)" xlink:href="#Degradado_sin_nombre_42"/>
    <linearGradient id="linear-gradient24" x1="-615.96" y1="409.26" x2="-589.79" y2="409.26" gradientTransform="translate(768.24 -380.28)" xlink:href="#linear-gradient"/>
    <linearGradient id="Degradado_sin_nombre_4224" data-name="Degradado sin nombre 42" x1="-617.66" y1="409.26" x2="-586.3" y2="409.26" gradientTransform="translate(768.24 -380.28)" xlink:href="#Degradado_sin_nombre_42"/>
  </defs>
  <g>
    <rect x="18.76" y="51.76" width="27.96" height="27.96" transform="translate(-33 98.48) rotate(-90)" fill="url(#linear-gradient)" stroke="url(#Degradado_sin_nombre_42)" stroke-linecap="round" stroke-linejoin="round" stroke-width="3.4"/>
    <rect x="52.14" y="51.76" width="27.96" height="27.96" transform="translate(.38 131.86) rotate(-90)" fill="url(#linear-gradient1)" stroke="url(#Degradado_sin_nombre_421)" stroke-linecap="round" stroke-linejoin="round" stroke-width="3.4"/>
    <rect x="85.52" y="51.76" width="27.96" height="27.96" transform="translate(33.76 165.24) rotate(-90)" fill="url(#linear-gradient2)" stroke="url(#Degradado_sin_nombre_422)" stroke-linecap="round" stroke-linejoin="round" stroke-width="3.4"/>
    <rect x="118.9" y="51.76" width="27.96" height="27.96" transform="translate(67.14 198.62) rotate(-90)" fill="url(#linear-gradient3)" stroke="url(#Degradado_sin_nombre_423)" stroke-linecap="round" stroke-linejoin="round" stroke-width="3.4"/>
    <rect x="152.28" y="51.76" width="27.96" height="27.96" transform="translate(100.52 232) rotate(-90)" fill="url(#linear-gradient4)" stroke="url(#Degradado_sin_nombre_424)" stroke-linecap="round" stroke-linejoin="round" stroke-width="3.4"/>
  </g>
  <g>
    <rect x="18.76" y="88.52" width="27.96" height="27.96" transform="translate(-69.76 135.24) rotate(-90)" fill="url(#linear-gradient5)" stroke="url(#Degradado_sin_nombre_425)" stroke-linecap="round" stroke-linejoin="round" stroke-width="3.4"/>
    <rect x="52.14" y="88.52" width="27.96" height="27.96" transform="translate(-36.38 168.62) rotate(-90)" fill="url(#linear-gradient6)" stroke="url(#Degradado_sin_nombre_426)" stroke-linecap="round" stroke-linejoin="round" stroke-width="3.4"/>
    <rect x="85.52" y="88.52" width="27.96" height="27.96" transform="translate(-3 202) rotate(-90)" fill="url(#linear-gradient7)" stroke="url(#Degradado_sin_nombre_427)" stroke-linecap="round" stroke-linejoin="round" stroke-width="3.4"/>
    <rect x="118.9" y="88.52" width="27.96" height="27.96" transform="translate(30.38 235.38) rotate(-90)" fill="url(#linear-gradient8)" stroke="url(#Degradado_sin_nombre_428)" stroke-linecap="round" stroke-linejoin="round" stroke-width="3.4"/>
    <rect x="152.28" y="88.52" width="27.96" height="27.96" transform="translate(63.76 268.76) rotate(-90)" fill="url(#linear-gradient9)" stroke="url(#Degradado_sin_nombre_429)" stroke-linecap="round" stroke-linejoin="round" stroke-width="3.4"/>
  </g>
  <g>
    <rect x="18.76" y="125.28" width="27.96" height="27.96" transform="translate(-106.52 172) rotate(-90)" fill="url(#linear-gradient10)" stroke="url(#Degradado_sin_nombre_4210)" stroke-linecap="round" stroke-linejoin="round" stroke-width="3.4"/>
    <rect x="52.14" y="125.28" width="27.96" height="27.96" transform="translate(-73.14 205.38) rotate(-90)" fill="url(#linear-gradient11)" stroke="url(#Degradado_sin_nombre_4211)" stroke-linecap="round" stroke-linejoin="round" stroke-width="3.4"/>
    <rect x="85.52" y="125.28" width="27.96" height="27.96" transform="translate(-39.76 238.76) rotate(-90)" fill="url(#linear-gradient12)" stroke="url(#Degradado_sin_nombre_4212)" stroke-linecap="round" stroke-linejoin="round" stroke-width="3.4"/>
    <rect x="118.9" y="125.28" width="27.96" height="27.96" transform="translate(-6.38 272.14) rotate(-90)" fill="url(#linear-gradient13)" stroke="url(#Degradado_sin_nombre_4213)" stroke-linecap="round" stroke-linejoin="round" stroke-width="3.4"/>
    <rect x="152.28" y="125.28" width="27.96" height="27.96" transform="translate(27 305.52) rotate(-90)" fill="url(#linear-gradient14)" stroke="url(#Degradado_sin_nombre_4214)" stroke-linecap="round" stroke-linejoin="round" stroke-width="3.4"/>
  </g>
  <g>
    <rect x="18.76" y="162.04" width="27.96" height="27.96" transform="translate(-143.28 208.76) rotate(-90)" fill="url(#linear-gradient15)" stroke="url(#Degradado_sin_nombre_4215)" stroke-linecap="round" stroke-linejoin="round" stroke-width="3.4"/>
    <rect x="52.14" y="162.04" width="27.96" height="27.96" transform="translate(-109.9 242.14) rotate(-90)" fill="url(#linear-gradient16)" stroke="url(#Degradado_sin_nombre_4216)" stroke-linecap="round" stroke-linejoin="round" stroke-width="3.4"/>
    <rect x="85.52" y="162.04" width="27.96" height="27.96" transform="translate(-76.52 275.52) rotate(-90)" fill="url(#linear-gradient17)" stroke="url(#Degradado_sin_nombre_4217)" stroke-linecap="round" stroke-linejoin="round" stroke-width="3.4"/>
    <rect x="118.9" y="162.04" width="27.96" height="27.96" transform="translate(-43.14 308.9) rotate(-90)" fill="url(#linear-gradient18)" stroke="url(#Degradado_sin_nombre_4218)" stroke-linecap="round" stroke-linejoin="round" stroke-width="3.4"/>
    <rect x="152.28" y="162.04" width="27.96" height="27.96" transform="translate(-9.76 342.28) rotate(-90)" fill="url(#linear-gradient19)" stroke="url(#Degradado_sin_nombre_4219)" stroke-linecap="round" stroke-linejoin="round" stroke-width="3.4"/>
  </g>
  <rect x="18.76" y="15" width="27.96" height="27.96" transform="translate(3.76 61.72) rotate(-90)" fill="url(#linear-gradient20)" stroke="url(#Degradado_sin_nombre_4220)" stroke-linecap="round" stroke-linejoin="round" stroke-width="3.4"/>
  <rect x="52.14" y="15" width="27.96" height="27.96" transform="translate(37.14 95.1) rotate(-90)" fill="url(#linear-gradient21)" stroke="url(#Degradado_sin_nombre_4221)" stroke-linecap="round" stroke-linejoin="round" stroke-width="3.4"/>
  <rect x="85.52" y="15" width="27.96" height="27.96" transform="translate(70.52 128.48) rotate(-90)" fill="url(#linear-gradient22)" stroke="url(#Degradado_sin_nombre_4222)" stroke-linecap="round" stroke-linejoin="round" stroke-width="3.4"/>
  <rect x="118.9" y="15" width="27.96" height="27.96" transform="translate(103.9 161.86) rotate(-90)" fill="url(#linear-gradient23)" stroke="url(#Degradado_sin_nombre_4223)" stroke-linecap="round" stroke-linejoin="round" stroke-width="3.4"/>
  <rect x="152.28" y="15" width="27.96" height="27.96" transform="translate(137.28 195.24) rotate(-90)" fill="url(#linear-gradient24)" stroke="url(#Degradado_sin_nombre_4224)" stroke-linecap="round" stroke-linejoin="round" stroke-width="3.4"/>
  <g>
    <path d="M28.96,105.91c.76.4,1.97.79,3.2.79,1.33,0,2.03-.55,2.03-1.38s-.61-1.25-2.14-1.78c-2.12-.76-3.52-1.93-3.52-3.79,0-2.18,1.84-3.83,4.83-3.83,1.46,0,2.5.28,3.26.64l-.64,2.31c-.49-.25-1.42-.61-2.65-.61s-1.86.59-1.86,1.23c0,.81.7,1.17,2.37,1.8,2.25.83,3.29,2.01,3.29,3.81,0,2.14-1.63,3.96-5.13,3.96-1.46,0-2.9-.4-3.62-.79l.59-2.37Z" fill="#fff"/>
    <path d="M61.54,96.34c.89-.15,2.14-.26,3.9-.26s3.05.34,3.9,1.02c.83.64,1.36,1.7,1.36,2.95s-.4,2.33-1.17,3.03c-.98.91-2.44,1.34-4.15,1.34-.38,0-.72-.02-.98-.08v4.58h-2.86v-12.59ZM64.4,102.13c.25.06.53.08.97.08,1.53,0,2.48-.78,2.48-2.06,0-1.17-.81-1.88-2.27-1.88-.57,0-.97.04-1.17.09v3.77Z" fill="#fff"/>
    <path d="M103.01,103.48h-4.7v3.03h5.25v2.37h-8.12v-12.76h7.86v2.37h-4.98v2.65h4.7v2.35Z" fill="#fff"/>
    <path d="M128.9,96.12h2.88v10.34h5.07v2.42h-7.95v-12.76Z" fill="#fff"/>
    <path d="M162.28,96.12h2.88v10.34h5.07v2.42h-7.95v-12.76Z" fill="#fff"/>
  </g>
  <path d="M104.93,139.91c-.07-1.29-.14-2.85-.14-4.41h-.05c-.53,1.37-1.21,2.9-1.83,4.16l-1.98,4.19h-2.87l-1.74-4.14c-.53-1.27-1.06-2.8-1.47-4.21h-.05c-.07,1.45-.17,3.11-.27,4.44l-.31,4.08h-3.4l1.04-10.74h4.9l1.59,3.58c.53,1.24,1.01,2.58,1.38,3.84h.1c.43-1.24.99-2.66,1.54-3.86l1.71-3.57h4.83l.87,10.74h-3.57l-.27-4.11Z" fill="#fff"/>
</svg>